<?xml version="1.0" encoding="utf-8" standalone="no"?>
<!DOCTYPE svg PUBLIC "-//W3C//DTD SVG 1.1//EN"
  "http://www.w3.org/Graphics/SVG/1.1/DTD/svg11.dtd">
<!-- Created with matplotlib (https://matplotlib.org/) -->
<svg height="637.39972pt" version="1.1" viewBox="0 0 1834.125 637.39972" width="1834.125pt" xmlns="http://www.w3.org/2000/svg" xmlns:xlink="http://www.w3.org/1999/xlink">
 <metadata>
  <rdf:RDF xmlns:cc="http://creativecommons.org/ns#" xmlns:dc="http://purl.org/dc/elements/1.1/" xmlns:rdf="http://www.w3.org/1999/02/22-rdf-syntax-ns#">
   <cc:Work>
    <dc:type rdf:resource="http://purl.org/dc/dcmitype/StillImage"/>
    <dc:date>2021-02-19T15:35:58.680891</dc:date>
    <dc:format>image/svg+xml</dc:format>
    <dc:creator>
     <cc:Agent>
      <dc:title>Matplotlib v3.3.2, https://matplotlib.org/</dc:title>
     </cc:Agent>
    </dc:creator>
   </cc:Work>
  </rdf:RDF>
 </metadata>
 <defs>
  <style type="text/css">*{stroke-linecap:butt;stroke-linejoin:round;}</style>
 </defs>
 <g id="figure_1">
  <g id="patch_1">
   <path d="M 0 637.39972 
L 1834.125 637.39972 
L 1834.125 0 
L 0 0 
z
" style="fill:#ffffff;"/>
  </g>
  <g id="axes_1">
   <g id="patch_2">
    <path d="M 26.925 553.3575 
L 794.188427 553.3575 
L 794.188427 49.3575 
L 26.925 49.3575 
z
" style="fill:#e5e5e5;"/>
   </g>
   <g id="matplotlib.axis_1">
    <g id="xtick_1">
     <g id="line2d_1">
      <path clip-path="url(#p73cc538028)" d="M 26.925 553.3575 
L 26.925 49.3575 
" style="fill:none;stroke:#ffffff;stroke-linecap:square;stroke-width:0.8;"/>
     </g>
     <g id="line2d_2">
      <defs>
       <path d="M 0 0 
L 0 3.5 
" id="m3892123b37" style="stroke:#555555;stroke-width:0.8;"/>
      </defs>
      <g>
       <use style="fill:#555555;stroke:#555555;stroke-width:0.8;" x="26.925" xlink:href="#m3892123b37" y="553.3575"/>
      </g>
     </g>
     <g id="text_1">
      <!-- -500000 -->
      <g style="fill:#555555;" transform="translate(15.610067 597.249173)rotate(-50)scale(0.1 -0.1)">
       <defs>
        <path d="M 4.890625 31.390625 
L 31.203125 31.390625 
L 31.203125 23.390625 
L 4.890625 23.390625 
z
" id="DejaVuSans-45"/>
        <path d="M 10.796875 72.90625 
L 49.515625 72.90625 
L 49.515625 64.59375 
L 19.828125 64.59375 
L 19.828125 46.734375 
Q 21.96875 47.46875 24.109375 47.828125 
Q 26.265625 48.1875 28.421875 48.1875 
Q 40.625 48.1875 47.75 41.5 
Q 54.890625 34.8125 54.890625 23.390625 
Q 54.890625 11.625 47.5625 5.09375 
Q 40.234375 -1.421875 26.90625 -1.421875 
Q 22.3125 -1.421875 17.546875 -0.640625 
Q 12.796875 0.140625 7.71875 1.703125 
L 7.71875 11.625 
Q 12.109375 9.234375 16.796875 8.0625 
Q 21.484375 6.890625 26.703125 6.890625 
Q 35.15625 6.890625 40.078125 11.328125 
Q 45.015625 15.765625 45.015625 23.390625 
Q 45.015625 31 40.078125 35.4375 
Q 35.15625 39.890625 26.703125 39.890625 
Q 22.75 39.890625 18.8125 39.015625 
Q 14.890625 38.140625 10.796875 36.28125 
z
" id="DejaVuSans-53"/>
        <path d="M 31.78125 66.40625 
Q 24.171875 66.40625 20.328125 58.90625 
Q 16.5 51.421875 16.5 36.375 
Q 16.5 21.390625 20.328125 13.890625 
Q 24.171875 6.390625 31.78125 6.390625 
Q 39.453125 6.390625 43.28125 13.890625 
Q 47.125 21.390625 47.125 36.375 
Q 47.125 51.421875 43.28125 58.90625 
Q 39.453125 66.40625 31.78125 66.40625 
z
M 31.78125 74.21875 
Q 44.046875 74.21875 50.515625 64.515625 
Q 56.984375 54.828125 56.984375 36.375 
Q 56.984375 17.96875 50.515625 8.265625 
Q 44.046875 -1.421875 31.78125 -1.421875 
Q 19.53125 -1.421875 13.0625 8.265625 
Q 6.59375 17.96875 6.59375 36.375 
Q 6.59375 54.828125 13.0625 64.515625 
Q 19.53125 74.21875 31.78125 74.21875 
z
" id="DejaVuSans-48"/>
       </defs>
       <use xlink:href="#DejaVuSans-45"/>
       <use x="36.083984" xlink:href="#DejaVuSans-53"/>
       <use x="99.707031" xlink:href="#DejaVuSans-48"/>
       <use x="163.330078" xlink:href="#DejaVuSans-48"/>
       <use x="226.953125" xlink:href="#DejaVuSans-48"/>
       <use x="290.576172" xlink:href="#DejaVuSans-48"/>
       <use x="354.199219" xlink:href="#DejaVuSans-48"/>
      </g>
     </g>
    </g>
    <g id="xtick_2">
     <g id="line2d_3">
      <path clip-path="url(#p73cc538028)" d="M 104.426356 553.3575 
L 104.426356 49.3575 
" style="fill:none;stroke:#ffffff;stroke-linecap:square;stroke-width:0.8;"/>
     </g>
     <g id="line2d_4">
      <g>
       <use style="fill:#555555;stroke:#555555;stroke-width:0.8;" x="104.426356" xlink:href="#m3892123b37" y="553.3575"/>
      </g>
     </g>
     <g id="text_2">
      <!-- -450000 -->
      <g style="fill:#555555;" transform="translate(93.111423 597.249173)rotate(-50)scale(0.1 -0.1)">
       <defs>
        <path d="M 37.796875 64.3125 
L 12.890625 25.390625 
L 37.796875 25.390625 
z
M 35.203125 72.90625 
L 47.609375 72.90625 
L 47.609375 25.390625 
L 58.015625 25.390625 
L 58.015625 17.1875 
L 47.609375 17.1875 
L 47.609375 0 
L 37.796875 0 
L 37.796875 17.1875 
L 4.890625 17.1875 
L 4.890625 26.703125 
z
" id="DejaVuSans-52"/>
       </defs>
       <use xlink:href="#DejaVuSans-45"/>
       <use x="36.083984" xlink:href="#DejaVuSans-52"/>
       <use x="99.707031" xlink:href="#DejaVuSans-53"/>
       <use x="163.330078" xlink:href="#DejaVuSans-48"/>
       <use x="226.953125" xlink:href="#DejaVuSans-48"/>
       <use x="290.576172" xlink:href="#DejaVuSans-48"/>
       <use x="354.199219" xlink:href="#DejaVuSans-48"/>
      </g>
     </g>
    </g>
    <g id="xtick_3">
     <g id="line2d_5">
      <path clip-path="url(#p73cc538028)" d="M 181.927713 553.3575 
L 181.927713 49.3575 
" style="fill:none;stroke:#ffffff;stroke-linecap:square;stroke-width:0.8;"/>
     </g>
     <g id="line2d_6">
      <g>
       <use style="fill:#555555;stroke:#555555;stroke-width:0.8;" x="181.927713" xlink:href="#m3892123b37" y="553.3575"/>
      </g>
     </g>
     <g id="text_3">
      <!-- -400000 -->
      <g style="fill:#555555;" transform="translate(170.612779 597.249173)rotate(-50)scale(0.1 -0.1)">
       <use xlink:href="#DejaVuSans-45"/>
       <use x="36.083984" xlink:href="#DejaVuSans-52"/>
       <use x="99.707031" xlink:href="#DejaVuSans-48"/>
       <use x="163.330078" xlink:href="#DejaVuSans-48"/>
       <use x="226.953125" xlink:href="#DejaVuSans-48"/>
       <use x="290.576172" xlink:href="#DejaVuSans-48"/>
       <use x="354.199219" xlink:href="#DejaVuSans-48"/>
      </g>
     </g>
    </g>
    <g id="xtick_4">
     <g id="line2d_7">
      <path clip-path="url(#p73cc538028)" d="M 259.429069 553.3575 
L 259.429069 49.3575 
" style="fill:none;stroke:#ffffff;stroke-linecap:square;stroke-width:0.8;"/>
     </g>
     <g id="line2d_8">
      <g>
       <use style="fill:#555555;stroke:#555555;stroke-width:0.8;" x="259.429069" xlink:href="#m3892123b37" y="553.3575"/>
      </g>
     </g>
     <g id="text_4">
      <!-- -350000 -->
      <g style="fill:#555555;" transform="translate(248.114136 597.249173)rotate(-50)scale(0.1 -0.1)">
       <defs>
        <path d="M 40.578125 39.3125 
Q 47.65625 37.796875 51.625 33 
Q 55.609375 28.21875 55.609375 21.1875 
Q 55.609375 10.40625 48.1875 4.484375 
Q 40.765625 -1.421875 27.09375 -1.421875 
Q 22.515625 -1.421875 17.65625 -0.515625 
Q 12.796875 0.390625 7.625 2.203125 
L 7.625 11.71875 
Q 11.71875 9.328125 16.59375 8.109375 
Q 21.484375 6.890625 26.8125 6.890625 
Q 36.078125 6.890625 40.9375 10.546875 
Q 45.796875 14.203125 45.796875 21.1875 
Q 45.796875 27.640625 41.28125 31.265625 
Q 36.765625 34.90625 28.71875 34.90625 
L 20.21875 34.90625 
L 20.21875 43.015625 
L 29.109375 43.015625 
Q 36.375 43.015625 40.234375 45.921875 
Q 44.09375 48.828125 44.09375 54.296875 
Q 44.09375 59.90625 40.109375 62.90625 
Q 36.140625 65.921875 28.71875 65.921875 
Q 24.65625 65.921875 20.015625 65.03125 
Q 15.375 64.15625 9.8125 62.3125 
L 9.8125 71.09375 
Q 15.4375 72.65625 20.34375 73.4375 
Q 25.25 74.21875 29.59375 74.21875 
Q 40.828125 74.21875 47.359375 69.109375 
Q 53.90625 64.015625 53.90625 55.328125 
Q 53.90625 49.265625 50.4375 45.09375 
Q 46.96875 40.921875 40.578125 39.3125 
z
" id="DejaVuSans-51"/>
       </defs>
       <use xlink:href="#DejaVuSans-45"/>
       <use x="36.083984" xlink:href="#DejaVuSans-51"/>
       <use x="99.707031" xlink:href="#DejaVuSans-53"/>
       <use x="163.330078" xlink:href="#DejaVuSans-48"/>
       <use x="226.953125" xlink:href="#DejaVuSans-48"/>
       <use x="290.576172" xlink:href="#DejaVuSans-48"/>
       <use x="354.199219" xlink:href="#DejaVuSans-48"/>
      </g>
     </g>
    </g>
    <g id="xtick_5">
     <g id="line2d_9">
      <path clip-path="url(#p73cc538028)" d="M 336.930425 553.3575 
L 336.930425 49.3575 
" style="fill:none;stroke:#ffffff;stroke-linecap:square;stroke-width:0.8;"/>
     </g>
     <g id="line2d_10">
      <g>
       <use style="fill:#555555;stroke:#555555;stroke-width:0.8;" x="336.930425" xlink:href="#m3892123b37" y="553.3575"/>
      </g>
     </g>
     <g id="text_5">
      <!-- -300000 -->
      <g style="fill:#555555;" transform="translate(325.615492 597.249173)rotate(-50)scale(0.1 -0.1)">
       <use xlink:href="#DejaVuSans-45"/>
       <use x="36.083984" xlink:href="#DejaVuSans-51"/>
       <use x="99.707031" xlink:href="#DejaVuSans-48"/>
       <use x="163.330078" xlink:href="#DejaVuSans-48"/>
       <use x="226.953125" xlink:href="#DejaVuSans-48"/>
       <use x="290.576172" xlink:href="#DejaVuSans-48"/>
       <use x="354.199219" xlink:href="#DejaVuSans-48"/>
      </g>
     </g>
    </g>
    <g id="xtick_6">
     <g id="line2d_11">
      <path clip-path="url(#p73cc538028)" d="M 414.431781 553.3575 
L 414.431781 49.3575 
" style="fill:none;stroke:#ffffff;stroke-linecap:square;stroke-width:0.8;"/>
     </g>
     <g id="line2d_12">
      <g>
       <use style="fill:#555555;stroke:#555555;stroke-width:0.8;" x="414.431781" xlink:href="#m3892123b37" y="553.3575"/>
      </g>
     </g>
     <g id="text_6">
      <!-- -250000 -->
      <g style="fill:#555555;" transform="translate(403.116848 597.249173)rotate(-50)scale(0.1 -0.1)">
       <defs>
        <path d="M 19.1875 8.296875 
L 53.609375 8.296875 
L 53.609375 0 
L 7.328125 0 
L 7.328125 8.296875 
Q 12.9375 14.109375 22.625 23.890625 
Q 32.328125 33.6875 34.8125 36.53125 
Q 39.546875 41.84375 41.421875 45.53125 
Q 43.3125 49.21875 43.3125 52.78125 
Q 43.3125 58.59375 39.234375 62.25 
Q 35.15625 65.921875 28.609375 65.921875 
Q 23.96875 65.921875 18.8125 64.3125 
Q 13.671875 62.703125 7.8125 59.421875 
L 7.8125 69.390625 
Q 13.765625 71.78125 18.9375 73 
Q 24.125 74.21875 28.421875 74.21875 
Q 39.75 74.21875 46.484375 68.546875 
Q 53.21875 62.890625 53.21875 53.421875 
Q 53.21875 48.921875 51.53125 44.890625 
Q 49.859375 40.875 45.40625 35.40625 
Q 44.1875 33.984375 37.640625 27.21875 
Q 31.109375 20.453125 19.1875 8.296875 
z
" id="DejaVuSans-50"/>
       </defs>
       <use xlink:href="#DejaVuSans-45"/>
       <use x="36.083984" xlink:href="#DejaVuSans-50"/>
       <use x="99.707031" xlink:href="#DejaVuSans-53"/>
       <use x="163.330078" xlink:href="#DejaVuSans-48"/>
       <use x="226.953125" xlink:href="#DejaVuSans-48"/>
       <use x="290.576172" xlink:href="#DejaVuSans-48"/>
       <use x="354.199219" xlink:href="#DejaVuSans-48"/>
      </g>
     </g>
    </g>
    <g id="xtick_7">
     <g id="line2d_13">
      <path clip-path="url(#p73cc538028)" d="M 491.933138 553.3575 
L 491.933138 49.3575 
" style="fill:none;stroke:#ffffff;stroke-linecap:square;stroke-width:0.8;"/>
     </g>
     <g id="line2d_14">
      <g>
       <use style="fill:#555555;stroke:#555555;stroke-width:0.8;" x="491.933138" xlink:href="#m3892123b37" y="553.3575"/>
      </g>
     </g>
     <g id="text_7">
      <!-- -200000 -->
      <g style="fill:#555555;" transform="translate(480.618204 597.249173)rotate(-50)scale(0.1 -0.1)">
       <use xlink:href="#DejaVuSans-45"/>
       <use x="36.083984" xlink:href="#DejaVuSans-50"/>
       <use x="99.707031" xlink:href="#DejaVuSans-48"/>
       <use x="163.330078" xlink:href="#DejaVuSans-48"/>
       <use x="226.953125" xlink:href="#DejaVuSans-48"/>
       <use x="290.576172" xlink:href="#DejaVuSans-48"/>
       <use x="354.199219" xlink:href="#DejaVuSans-48"/>
      </g>
     </g>
    </g>
    <g id="xtick_8">
     <g id="line2d_15">
      <path clip-path="url(#p73cc538028)" d="M 569.434494 553.3575 
L 569.434494 49.3575 
" style="fill:none;stroke:#ffffff;stroke-linecap:square;stroke-width:0.8;"/>
     </g>
     <g id="line2d_16">
      <g>
       <use style="fill:#555555;stroke:#555555;stroke-width:0.8;" x="569.434494" xlink:href="#m3892123b37" y="553.3575"/>
      </g>
     </g>
     <g id="text_8">
      <!-- -150000 -->
      <g style="fill:#555555;" transform="translate(558.119561 597.249173)rotate(-50)scale(0.1 -0.1)">
       <defs>
        <path d="M 12.40625 8.296875 
L 28.515625 8.296875 
L 28.515625 63.921875 
L 10.984375 60.40625 
L 10.984375 69.390625 
L 28.421875 72.90625 
L 38.28125 72.90625 
L 38.28125 8.296875 
L 54.390625 8.296875 
L 54.390625 0 
L 12.40625 0 
z
" id="DejaVuSans-49"/>
       </defs>
       <use xlink:href="#DejaVuSans-45"/>
       <use x="36.083984" xlink:href="#DejaVuSans-49"/>
       <use x="99.707031" xlink:href="#DejaVuSans-53"/>
       <use x="163.330078" xlink:href="#DejaVuSans-48"/>
       <use x="226.953125" xlink:href="#DejaVuSans-48"/>
       <use x="290.576172" xlink:href="#DejaVuSans-48"/>
       <use x="354.199219" xlink:href="#DejaVuSans-48"/>
      </g>
     </g>
    </g>
    <g id="xtick_9">
     <g id="line2d_17">
      <path clip-path="url(#p73cc538028)" d="M 646.93585 553.3575 
L 646.93585 49.3575 
" style="fill:none;stroke:#ffffff;stroke-linecap:square;stroke-width:0.8;"/>
     </g>
     <g id="line2d_18">
      <g>
       <use style="fill:#555555;stroke:#555555;stroke-width:0.8;" x="646.93585" xlink:href="#m3892123b37" y="553.3575"/>
      </g>
     </g>
     <g id="text_9">
      <!-- -100000 -->
      <g style="fill:#555555;" transform="translate(635.620917 597.249173)rotate(-50)scale(0.1 -0.1)">
       <use xlink:href="#DejaVuSans-45"/>
       <use x="36.083984" xlink:href="#DejaVuSans-49"/>
       <use x="99.707031" xlink:href="#DejaVuSans-48"/>
       <use x="163.330078" xlink:href="#DejaVuSans-48"/>
       <use x="226.953125" xlink:href="#DejaVuSans-48"/>
       <use x="290.576172" xlink:href="#DejaVuSans-48"/>
       <use x="354.199219" xlink:href="#DejaVuSans-48"/>
      </g>
     </g>
    </g>
    <g id="xtick_10">
     <g id="line2d_19">
      <path clip-path="url(#p73cc538028)" d="M 724.437206 553.3575 
L 724.437206 49.3575 
" style="fill:none;stroke:#ffffff;stroke-linecap:square;stroke-width:0.8;"/>
     </g>
     <g id="line2d_20">
      <g>
       <use style="fill:#555555;stroke:#555555;stroke-width:0.8;" x="724.437206" xlink:href="#m3892123b37" y="553.3575"/>
      </g>
     </g>
     <g id="text_10">
      <!-- -50000 -->
      <g style="fill:#555555;" transform="translate(715.167141 592.375215)rotate(-50)scale(0.1 -0.1)">
       <use xlink:href="#DejaVuSans-45"/>
       <use x="36.083984" xlink:href="#DejaVuSans-53"/>
       <use x="99.707031" xlink:href="#DejaVuSans-48"/>
       <use x="163.330078" xlink:href="#DejaVuSans-48"/>
       <use x="226.953125" xlink:href="#DejaVuSans-48"/>
       <use x="290.576172" xlink:href="#DejaVuSans-48"/>
      </g>
     </g>
    </g>
    <g id="text_11">
     <!-- Distance to TSS -->
     <g style="fill:#555555;" transform="translate(363.201714 627.704095)scale(0.12 -0.12)">
      <defs>
       <path d="M 19.671875 64.796875 
L 19.671875 8.109375 
L 31.59375 8.109375 
Q 46.6875 8.109375 53.6875 14.9375 
Q 60.6875 21.78125 60.6875 36.53125 
Q 60.6875 51.171875 53.6875 57.984375 
Q 46.6875 64.796875 31.59375 64.796875 
z
M 9.8125 72.90625 
L 30.078125 72.90625 
Q 51.265625 72.90625 61.171875 64.09375 
Q 71.09375 55.28125 71.09375 36.53125 
Q 71.09375 17.671875 61.125 8.828125 
Q 51.171875 0 30.078125 0 
L 9.8125 0 
z
" id="DejaVuSans-68"/>
       <path d="M 9.421875 54.6875 
L 18.40625 54.6875 
L 18.40625 0 
L 9.421875 0 
z
M 9.421875 75.984375 
L 18.40625 75.984375 
L 18.40625 64.59375 
L 9.421875 64.59375 
z
" id="DejaVuSans-105"/>
       <path d="M 44.28125 53.078125 
L 44.28125 44.578125 
Q 40.484375 46.53125 36.375 47.5 
Q 32.28125 48.484375 27.875 48.484375 
Q 21.1875 48.484375 17.84375 46.4375 
Q 14.5 44.390625 14.5 40.28125 
Q 14.5 37.15625 16.890625 35.375 
Q 19.28125 33.59375 26.515625 31.984375 
L 29.59375 31.296875 
Q 39.15625 29.25 43.1875 25.515625 
Q 47.21875 21.78125 47.21875 15.09375 
Q 47.21875 7.46875 41.1875 3.015625 
Q 35.15625 -1.421875 24.609375 -1.421875 
Q 20.21875 -1.421875 15.453125 -0.5625 
Q 10.6875 0.296875 5.421875 2 
L 5.421875 11.28125 
Q 10.40625 8.6875 15.234375 7.390625 
Q 20.0625 6.109375 24.8125 6.109375 
Q 31.15625 6.109375 34.5625 8.28125 
Q 37.984375 10.453125 37.984375 14.40625 
Q 37.984375 18.0625 35.515625 20.015625 
Q 33.0625 21.96875 24.703125 23.78125 
L 21.578125 24.515625 
Q 13.234375 26.265625 9.515625 29.90625 
Q 5.8125 33.546875 5.8125 39.890625 
Q 5.8125 47.609375 11.28125 51.796875 
Q 16.75 56 26.8125 56 
Q 31.78125 56 36.171875 55.265625 
Q 40.578125 54.546875 44.28125 53.078125 
z
" id="DejaVuSans-115"/>
       <path d="M 18.3125 70.21875 
L 18.3125 54.6875 
L 36.8125 54.6875 
L 36.8125 47.703125 
L 18.3125 47.703125 
L 18.3125 18.015625 
Q 18.3125 11.328125 20.140625 9.421875 
Q 21.96875 7.515625 27.59375 7.515625 
L 36.8125 7.515625 
L 36.8125 0 
L 27.59375 0 
Q 17.1875 0 13.234375 3.875 
Q 9.28125 7.765625 9.28125 18.015625 
L 9.28125 47.703125 
L 2.6875 47.703125 
L 2.6875 54.6875 
L 9.28125 54.6875 
L 9.28125 70.21875 
z
" id="DejaVuSans-116"/>
       <path d="M 34.28125 27.484375 
Q 23.390625 27.484375 19.1875 25 
Q 14.984375 22.515625 14.984375 16.5 
Q 14.984375 11.71875 18.140625 8.90625 
Q 21.296875 6.109375 26.703125 6.109375 
Q 34.1875 6.109375 38.703125 11.40625 
Q 43.21875 16.703125 43.21875 25.484375 
L 43.21875 27.484375 
z
M 52.203125 31.203125 
L 52.203125 0 
L 43.21875 0 
L 43.21875 8.296875 
Q 40.140625 3.328125 35.546875 0.953125 
Q 30.953125 -1.421875 24.3125 -1.421875 
Q 15.921875 -1.421875 10.953125 3.296875 
Q 6 8.015625 6 15.921875 
Q 6 25.140625 12.171875 29.828125 
Q 18.359375 34.515625 30.609375 34.515625 
L 43.21875 34.515625 
L 43.21875 35.40625 
Q 43.21875 41.609375 39.140625 45 
Q 35.0625 48.390625 27.6875 48.390625 
Q 23 48.390625 18.546875 47.265625 
Q 14.109375 46.140625 10.015625 43.890625 
L 10.015625 52.203125 
Q 14.9375 54.109375 19.578125 55.046875 
Q 24.21875 56 28.609375 56 
Q 40.484375 56 46.34375 49.84375 
Q 52.203125 43.703125 52.203125 31.203125 
z
" id="DejaVuSans-97"/>
       <path d="M 54.890625 33.015625 
L 54.890625 0 
L 45.90625 0 
L 45.90625 32.71875 
Q 45.90625 40.484375 42.875 44.328125 
Q 39.84375 48.1875 33.796875 48.1875 
Q 26.515625 48.1875 22.3125 43.546875 
Q 18.109375 38.921875 18.109375 30.90625 
L 18.109375 0 
L 9.078125 0 
L 9.078125 54.6875 
L 18.109375 54.6875 
L 18.109375 46.1875 
Q 21.34375 51.125 25.703125 53.5625 
Q 30.078125 56 35.796875 56 
Q 45.21875 56 50.046875 50.171875 
Q 54.890625 44.34375 54.890625 33.015625 
z
" id="DejaVuSans-110"/>
       <path d="M 48.78125 52.59375 
L 48.78125 44.1875 
Q 44.96875 46.296875 41.140625 47.34375 
Q 37.3125 48.390625 33.40625 48.390625 
Q 24.65625 48.390625 19.8125 42.84375 
Q 14.984375 37.3125 14.984375 27.296875 
Q 14.984375 17.28125 19.8125 11.734375 
Q 24.65625 6.203125 33.40625 6.203125 
Q 37.3125 6.203125 41.140625 7.25 
Q 44.96875 8.296875 48.78125 10.40625 
L 48.78125 2.09375 
Q 45.015625 0.34375 40.984375 -0.53125 
Q 36.96875 -1.421875 32.421875 -1.421875 
Q 20.0625 -1.421875 12.78125 6.34375 
Q 5.515625 14.109375 5.515625 27.296875 
Q 5.515625 40.671875 12.859375 48.328125 
Q 20.21875 56 33.015625 56 
Q 37.15625 56 41.109375 55.140625 
Q 45.0625 54.296875 48.78125 52.59375 
z
" id="DejaVuSans-99"/>
       <path d="M 56.203125 29.59375 
L 56.203125 25.203125 
L 14.890625 25.203125 
Q 15.484375 15.921875 20.484375 11.0625 
Q 25.484375 6.203125 34.421875 6.203125 
Q 39.59375 6.203125 44.453125 7.46875 
Q 49.3125 8.734375 54.109375 11.28125 
L 54.109375 2.78125 
Q 49.265625 0.734375 44.1875 -0.34375 
Q 39.109375 -1.421875 33.890625 -1.421875 
Q 20.796875 -1.421875 13.15625 6.1875 
Q 5.515625 13.8125 5.515625 26.8125 
Q 5.515625 40.234375 12.765625 48.109375 
Q 20.015625 56 32.328125 56 
Q 43.359375 56 49.78125 48.890625 
Q 56.203125 41.796875 56.203125 29.59375 
z
M 47.21875 32.234375 
Q 47.125 39.59375 43.09375 43.984375 
Q 39.0625 48.390625 32.421875 48.390625 
Q 24.90625 48.390625 20.390625 44.140625 
Q 15.875 39.890625 15.1875 32.171875 
z
" id="DejaVuSans-101"/>
       <path id="DejaVuSans-32"/>
       <path d="M 30.609375 48.390625 
Q 23.390625 48.390625 19.1875 42.75 
Q 14.984375 37.109375 14.984375 27.296875 
Q 14.984375 17.484375 19.15625 11.84375 
Q 23.34375 6.203125 30.609375 6.203125 
Q 37.796875 6.203125 41.984375 11.859375 
Q 46.1875 17.53125 46.1875 27.296875 
Q 46.1875 37.015625 41.984375 42.703125 
Q 37.796875 48.390625 30.609375 48.390625 
z
M 30.609375 56 
Q 42.328125 56 49.015625 48.375 
Q 55.71875 40.765625 55.71875 27.296875 
Q 55.71875 13.875 49.015625 6.21875 
Q 42.328125 -1.421875 30.609375 -1.421875 
Q 18.84375 -1.421875 12.171875 6.21875 
Q 5.515625 13.875 5.515625 27.296875 
Q 5.515625 40.765625 12.171875 48.375 
Q 18.84375 56 30.609375 56 
z
" id="DejaVuSans-111"/>
       <path d="M -0.296875 72.90625 
L 61.375 72.90625 
L 61.375 64.59375 
L 35.5 64.59375 
L 35.5 0 
L 25.59375 0 
L 25.59375 64.59375 
L -0.296875 64.59375 
z
" id="DejaVuSans-84"/>
       <path d="M 53.515625 70.515625 
L 53.515625 60.890625 
Q 47.90625 63.578125 42.921875 64.890625 
Q 37.9375 66.21875 33.296875 66.21875 
Q 25.25 66.21875 20.875 63.09375 
Q 16.5 59.96875 16.5 54.203125 
Q 16.5 49.359375 19.40625 46.890625 
Q 22.3125 44.4375 30.421875 42.921875 
L 36.375 41.703125 
Q 47.40625 39.59375 52.65625 34.296875 
Q 57.90625 29 57.90625 20.125 
Q 57.90625 9.515625 50.796875 4.046875 
Q 43.703125 -1.421875 29.984375 -1.421875 
Q 24.8125 -1.421875 18.96875 -0.25 
Q 13.140625 0.921875 6.890625 3.21875 
L 6.890625 13.375 
Q 12.890625 10.015625 18.65625 8.296875 
Q 24.421875 6.59375 29.984375 6.59375 
Q 38.421875 6.59375 43.015625 9.90625 
Q 47.609375 13.234375 47.609375 19.390625 
Q 47.609375 24.75 44.3125 27.78125 
Q 41.015625 30.8125 33.5 32.328125 
L 27.484375 33.5 
Q 16.453125 35.6875 11.515625 40.375 
Q 6.59375 45.0625 6.59375 53.421875 
Q 6.59375 63.09375 13.40625 68.65625 
Q 20.21875 74.21875 32.171875 74.21875 
Q 37.3125 74.21875 42.625 73.28125 
Q 47.953125 72.359375 53.515625 70.515625 
z
" id="DejaVuSans-83"/>
      </defs>
      <use xlink:href="#DejaVuSans-68"/>
      <use x="77.001953" xlink:href="#DejaVuSans-105"/>
      <use x="104.785156" xlink:href="#DejaVuSans-115"/>
      <use x="156.884766" xlink:href="#DejaVuSans-116"/>
      <use x="196.09375" xlink:href="#DejaVuSans-97"/>
      <use x="257.373047" xlink:href="#DejaVuSans-110"/>
      <use x="320.751953" xlink:href="#DejaVuSans-99"/>
      <use x="375.732422" xlink:href="#DejaVuSans-101"/>
      <use x="437.255859" xlink:href="#DejaVuSans-32"/>
      <use x="469.042969" xlink:href="#DejaVuSans-116"/>
      <use x="508.251953" xlink:href="#DejaVuSans-111"/>
      <use x="569.433594" xlink:href="#DejaVuSans-32"/>
      <use x="601.220703" xlink:href="#DejaVuSans-84"/>
      <use x="662.304688" xlink:href="#DejaVuSans-83"/>
      <use x="725.78125" xlink:href="#DejaVuSans-83"/>
     </g>
    </g>
   </g>
   <g id="matplotlib.axis_2">
    <g id="ytick_1">
     <g id="line2d_21">
      <path clip-path="url(#p73cc538028)" d="M 26.925 553.3575 
L 794.188427 553.3575 
" style="fill:none;stroke:#ffffff;stroke-linecap:square;stroke-width:0.8;"/>
     </g>
     <g id="line2d_22">
      <defs>
       <path d="M 0 0 
L -3.5 0 
" id="m741a9b7e05" style="stroke:#555555;stroke-width:0.8;"/>
      </defs>
      <g>
       <use style="fill:#555555;stroke:#555555;stroke-width:0.8;" x="26.925" xlink:href="#m741a9b7e05" y="553.3575"/>
      </g>
     </g>
     <g id="text_12">
      <!-- 0 -->
      <g style="fill:#555555;" transform="translate(13.5625 557.156719)scale(0.1 -0.1)">
       <use xlink:href="#DejaVuSans-48"/>
      </g>
     </g>
    </g>
    <g id="ytick_2">
     <g id="line2d_23">
      <path clip-path="url(#p73cc538028)" d="M 26.925 467.153366 
L 794.188427 467.153366 
" style="fill:none;stroke:#ffffff;stroke-linecap:square;stroke-width:0.8;"/>
     </g>
     <g id="line2d_24">
      <g>
       <use style="fill:#555555;stroke:#555555;stroke-width:0.8;" x="26.925" xlink:href="#m741a9b7e05" y="467.153366"/>
      </g>
     </g>
     <g id="text_13">
      <!-- 10 -->
      <g style="fill:#555555;" transform="translate(7.2 470.952585)scale(0.1 -0.1)">
       <use xlink:href="#DejaVuSans-49"/>
       <use x="63.623047" xlink:href="#DejaVuSans-48"/>
      </g>
     </g>
    </g>
    <g id="ytick_3">
     <g id="line2d_25">
      <path clip-path="url(#p73cc538028)" d="M 26.925 380.949232 
L 794.188427 380.949232 
" style="fill:none;stroke:#ffffff;stroke-linecap:square;stroke-width:0.8;"/>
     </g>
     <g id="line2d_26">
      <g>
       <use style="fill:#555555;stroke:#555555;stroke-width:0.8;" x="26.925" xlink:href="#m741a9b7e05" y="380.949232"/>
      </g>
     </g>
     <g id="text_14">
      <!-- 20 -->
      <g style="fill:#555555;" transform="translate(7.2 384.74845)scale(0.1 -0.1)">
       <use xlink:href="#DejaVuSans-50"/>
       <use x="63.623047" xlink:href="#DejaVuSans-48"/>
      </g>
     </g>
    </g>
    <g id="ytick_4">
     <g id="line2d_27">
      <path clip-path="url(#p73cc538028)" d="M 26.925 294.745097 
L 794.188427 294.745097 
" style="fill:none;stroke:#ffffff;stroke-linecap:square;stroke-width:0.8;"/>
     </g>
     <g id="line2d_28">
      <g>
       <use style="fill:#555555;stroke:#555555;stroke-width:0.8;" x="26.925" xlink:href="#m741a9b7e05" y="294.745097"/>
      </g>
     </g>
     <g id="text_15">
      <!-- 30 -->
      <g style="fill:#555555;" transform="translate(7.2 298.544316)scale(0.1 -0.1)">
       <use xlink:href="#DejaVuSans-51"/>
       <use x="63.623047" xlink:href="#DejaVuSans-48"/>
      </g>
     </g>
    </g>
    <g id="ytick_5">
     <g id="line2d_29">
      <path clip-path="url(#p73cc538028)" d="M 26.925 208.540963 
L 794.188427 208.540963 
" style="fill:none;stroke:#ffffff;stroke-linecap:square;stroke-width:0.8;"/>
     </g>
     <g id="line2d_30">
      <g>
       <use style="fill:#555555;stroke:#555555;stroke-width:0.8;" x="26.925" xlink:href="#m741a9b7e05" y="208.540963"/>
      </g>
     </g>
     <g id="text_16">
      <!-- 40 -->
      <g style="fill:#555555;" transform="translate(7.2 212.340182)scale(0.1 -0.1)">
       <use xlink:href="#DejaVuSans-52"/>
       <use x="63.623047" xlink:href="#DejaVuSans-48"/>
      </g>
     </g>
    </g>
    <g id="ytick_6">
     <g id="line2d_31">
      <path clip-path="url(#p73cc538028)" d="M 26.925 122.336829 
L 794.188427 122.336829 
" style="fill:none;stroke:#ffffff;stroke-linecap:square;stroke-width:0.8;"/>
     </g>
     <g id="line2d_32">
      <g>
       <use style="fill:#555555;stroke:#555555;stroke-width:0.8;" x="26.925" xlink:href="#m741a9b7e05" y="122.336829"/>
      </g>
     </g>
     <g id="text_17">
      <!-- 50 -->
      <g style="fill:#555555;" transform="translate(7.2 126.136048)scale(0.1 -0.1)">
       <use xlink:href="#DejaVuSans-53"/>
       <use x="63.623047" xlink:href="#DejaVuSans-48"/>
      </g>
     </g>
    </g>
   </g>
   <g id="PolyCollection_1">
    <defs>
     <path d="M 26.925 -84.04222 
L 26.925 -313.855955 
L 34.675136 -310.170624 
L 42.425271 -319.011407 
L 50.175407 -321.164638 
L 57.925543 -300.892082 
L 65.675678 -288.773219 
L 73.425814 -302.797445 
L 81.175949 -301.948364 
L 88.926085 -302.452336 
L 96.676221 -326.623876 
L 104.426356 -325.213939 
L 112.176492 -301.554235 
L 119.926628 -295.249736 
L 127.676763 -288.945712 
L 135.426899 -301.987211 
L 143.177034 -309.013996 
L 150.92717 -307.695121 
L 158.677306 -295.124862 
L 166.427441 -296.155723 
L 174.177577 -305.60744 
L 181.927713 -318.894119 
L 189.677848 -316.828853 
L 197.427984 -306.587903 
L 205.178119 -297.603613 
L 212.928255 -306.532141 
L 220.678391 -328.549011 
L 228.428526 -333.775542 
L 236.178662 -325.125212 
L 243.928798 -318.941188 
L 251.678933 -309.117565 
L 259.429069 -308.616379 
L 267.179204 -306.542586 
L 274.92934 -300.490154 
L 282.679476 -297.567169 
L 290.429611 -296.405915 
L 298.179747 -301.608415 
L 305.929883 -315.171117 
L 313.680018 -315.42278 
L 321.430154 -308.216082 
L 329.180289 -308.151766 
L 336.930425 -307.597987 
L 344.680561 -303.517455 
L 352.430696 -292.206752 
L 360.180832 -287.271887 
L 367.930968 -299.782132 
L 375.681103 -299.015413 
L 383.431239 -292.308943 
L 391.181374 -310.341995 
L 398.93151 -331.793912 
L 406.681646 -326.363302 
L 414.431781 -311.596502 
L 422.181917 -326.189725 
L 429.932053 -340.989167 
L 437.682188 -333.127545 
L 445.432324 -321.991172 
L 453.18246 -308.528306 
L 460.932595 -306.191241 
L 468.682731 -306.519249 
L 476.432866 -303.262191 
L 484.183002 -305.949643 
L 491.933138 -321.667215 
L 499.683273 -330.078178 
L 507.433409 -333.138288 
L 515.183545 -345.495024 
L 522.93368 -339.172548 
L 530.683816 -331.465521 
L 538.433951 -334.900135 
L 546.184087 -343.166811 
L 553.934223 -348.917661 
L 561.684358 -343.25907 
L 569.434494 -333.212268 
L 577.18463 -339.366762 
L 584.934765 -352.539232 
L 592.684901 -333.91037 
L 600.435036 -308.027919 
L 608.185172 -295.736191 
L 615.935308 -307.999975 
L 623.685443 -317.424971 
L 631.435579 -323.96181 
L 639.185715 -333.480143 
L 646.93585 -338.153414 
L 654.685986 -346.038209 
L 662.436121 -328.333311 
L 670.186257 -327.003628 
L 677.936393 -347.149612 
L 685.686528 -340.042881 
L 693.436664 -333.871662 
L 701.1868 -333.700298 
L 708.936935 -325.994019 
L 716.687071 -319.91307 
L 724.437206 -321.927789 
L 732.187342 -324.89346 
L 739.937478 -329.690564 
L 747.687613 -330.575727 
L 755.437749 -344.360292 
L 763.187885 -344.81244 
L 770.93802 -339.614482 
L 778.688156 -346.349965 
L 786.438291 -359.26148 
L 794.188427 -364.553064 
L 794.188427 -84.04222 
L 794.188427 -84.04222 
L 786.438291 -84.04222 
L 778.688156 -84.04222 
L 770.93802 -84.04222 
L 763.187885 -84.04222 
L 755.437749 -84.04222 
L 747.687613 -84.04222 
L 739.937478 -84.04222 
L 732.187342 -84.04222 
L 724.437206 -84.04222 
L 716.687071 -84.04222 
L 708.936935 -84.04222 
L 701.1868 -84.04222 
L 693.436664 -84.04222 
L 685.686528 -84.04222 
L 677.936393 -84.04222 
L 670.186257 -84.04222 
L 662.436121 -84.04222 
L 654.685986 -84.04222 
L 646.93585 -84.04222 
L 639.185715 -84.04222 
L 631.435579 -84.04222 
L 623.685443 -84.04222 
L 615.935308 -84.04222 
L 608.185172 -84.04222 
L 600.435036 -84.04222 
L 592.684901 -84.04222 
L 584.934765 -84.04222 
L 577.18463 -84.04222 
L 569.434494 -84.04222 
L 561.684358 -84.04222 
L 553.934223 -84.04222 
L 546.184087 -84.04222 
L 538.433951 -84.04222 
L 530.683816 -84.04222 
L 522.93368 -84.04222 
L 515.183545 -84.04222 
L 507.433409 -84.04222 
L 499.683273 -84.04222 
L 491.933138 -84.04222 
L 484.183002 -84.04222 
L 476.432866 -84.04222 
L 468.682731 -84.04222 
L 460.932595 -84.04222 
L 453.18246 -84.04222 
L 445.432324 -84.04222 
L 437.682188 -84.04222 
L 429.932053 -84.04222 
L 422.181917 -84.04222 
L 414.431781 -84.04222 
L 406.681646 -84.04222 
L 398.93151 -84.04222 
L 391.181374 -84.04222 
L 383.431239 -84.04222 
L 375.681103 -84.04222 
L 367.930968 -84.04222 
L 360.180832 -84.04222 
L 352.430696 -84.04222 
L 344.680561 -84.04222 
L 336.930425 -84.04222 
L 329.180289 -84.04222 
L 321.430154 -84.04222 
L 313.680018 -84.04222 
L 305.929883 -84.04222 
L 298.179747 -84.04222 
L 290.429611 -84.04222 
L 282.679476 -84.04222 
L 274.92934 -84.04222 
L 267.179204 -84.04222 
L 259.429069 -84.04222 
L 251.678933 -84.04222 
L 243.928798 -84.04222 
L 236.178662 -84.04222 
L 228.428526 -84.04222 
L 220.678391 -84.04222 
L 212.928255 -84.04222 
L 205.178119 -84.04222 
L 197.427984 -84.04222 
L 189.677848 -84.04222 
L 181.927713 -84.04222 
L 174.177577 -84.04222 
L 166.427441 -84.04222 
L 158.677306 -84.04222 
L 150.92717 -84.04222 
L 143.177034 -84.04222 
L 135.426899 -84.04222 
L 127.676763 -84.04222 
L 119.926628 -84.04222 
L 112.176492 -84.04222 
L 104.426356 -84.04222 
L 96.676221 -84.04222 
L 88.926085 -84.04222 
L 81.175949 -84.04222 
L 73.425814 -84.04222 
L 65.675678 -84.04222 
L 57.925543 -84.04222 
L 50.175407 -84.04222 
L 42.425271 -84.04222 
L 34.675136 -84.04222 
L 26.925 -84.04222 
z
" id="m1307d9976c" style="stroke:#404040;stroke-width:0.5;"/>
    </defs>
    <g clip-path="url(#p73cc538028)">
     <use style="fill:#404040;stroke:#404040;stroke-width:0.5;" x="0" xlink:href="#m1307d9976c" y="637.39972"/>
    </g>
   </g>
   <g id="patch_3">
    <path d="M 26.925 553.3575 
L 26.925 49.3575 
" style="fill:none;stroke:#ffffff;stroke-linecap:square;stroke-linejoin:miter;"/>
   </g>
   <g id="patch_4">
    <path d="M 794.188427 553.3575 
L 794.188427 49.3575 
" style="fill:none;stroke:#ffffff;stroke-linecap:square;stroke-linejoin:miter;"/>
   </g>
   <g id="patch_5">
    <path d="M 26.925 553.3575 
L 794.188427 553.3575 
" style="fill:none;stroke:#ffffff;stroke-linecap:square;stroke-linejoin:miter;"/>
   </g>
   <g id="patch_6">
    <path d="M 26.925 49.3575 
L 794.188427 49.3575 
" style="fill:none;stroke:#ffffff;stroke-linecap:square;stroke-linejoin:miter;"/>
   </g>
   <g id="text_18">
    <!-- Upstream -->
    <g transform="translate(371.592964 29.3575)scale(0.16 -0.16)">
     <defs>
      <path d="M 8.6875 72.90625 
L 18.609375 72.90625 
L 18.609375 28.609375 
Q 18.609375 16.890625 22.84375 11.734375 
Q 27.09375 6.59375 36.625 6.59375 
Q 46.09375 6.59375 50.34375 11.734375 
Q 54.59375 16.890625 54.59375 28.609375 
L 54.59375 72.90625 
L 64.5 72.90625 
L 64.5 27.390625 
Q 64.5 13.140625 57.4375 5.859375 
Q 50.390625 -1.421875 36.625 -1.421875 
Q 22.796875 -1.421875 15.734375 5.859375 
Q 8.6875 13.140625 8.6875 27.390625 
z
" id="DejaVuSans-85"/>
      <path d="M 18.109375 8.203125 
L 18.109375 -20.796875 
L 9.078125 -20.796875 
L 9.078125 54.6875 
L 18.109375 54.6875 
L 18.109375 46.390625 
Q 20.953125 51.265625 25.265625 53.625 
Q 29.59375 56 35.59375 56 
Q 45.5625 56 51.78125 48.09375 
Q 58.015625 40.1875 58.015625 27.296875 
Q 58.015625 14.40625 51.78125 6.484375 
Q 45.5625 -1.421875 35.59375 -1.421875 
Q 29.59375 -1.421875 25.265625 0.953125 
Q 20.953125 3.328125 18.109375 8.203125 
z
M 48.6875 27.296875 
Q 48.6875 37.203125 44.609375 42.84375 
Q 40.53125 48.484375 33.40625 48.484375 
Q 26.265625 48.484375 22.1875 42.84375 
Q 18.109375 37.203125 18.109375 27.296875 
Q 18.109375 17.390625 22.1875 11.75 
Q 26.265625 6.109375 33.40625 6.109375 
Q 40.53125 6.109375 44.609375 11.75 
Q 48.6875 17.390625 48.6875 27.296875 
z
" id="DejaVuSans-112"/>
      <path d="M 41.109375 46.296875 
Q 39.59375 47.171875 37.8125 47.578125 
Q 36.03125 48 33.890625 48 
Q 26.265625 48 22.1875 43.046875 
Q 18.109375 38.09375 18.109375 28.8125 
L 18.109375 0 
L 9.078125 0 
L 9.078125 54.6875 
L 18.109375 54.6875 
L 18.109375 46.1875 
Q 20.953125 51.171875 25.484375 53.578125 
Q 30.03125 56 36.53125 56 
Q 37.453125 56 38.578125 55.875 
Q 39.703125 55.765625 41.0625 55.515625 
z
" id="DejaVuSans-114"/>
      <path d="M 52 44.1875 
Q 55.375 50.25 60.0625 53.125 
Q 64.75 56 71.09375 56 
Q 79.640625 56 84.28125 50.015625 
Q 88.921875 44.046875 88.921875 33.015625 
L 88.921875 0 
L 79.890625 0 
L 79.890625 32.71875 
Q 79.890625 40.578125 77.09375 44.375 
Q 74.3125 48.1875 68.609375 48.1875 
Q 61.625 48.1875 57.5625 43.546875 
Q 53.515625 38.921875 53.515625 30.90625 
L 53.515625 0 
L 44.484375 0 
L 44.484375 32.71875 
Q 44.484375 40.625 41.703125 44.40625 
Q 38.921875 48.1875 33.109375 48.1875 
Q 26.21875 48.1875 22.15625 43.53125 
Q 18.109375 38.875 18.109375 30.90625 
L 18.109375 0 
L 9.078125 0 
L 9.078125 54.6875 
L 18.109375 54.6875 
L 18.109375 46.1875 
Q 21.1875 51.21875 25.484375 53.609375 
Q 29.78125 56 35.6875 56 
Q 41.65625 56 45.828125 52.96875 
Q 50 49.953125 52 44.1875 
z
" id="DejaVuSans-109"/>
     </defs>
     <use xlink:href="#DejaVuSans-85"/>
     <use x="73.193359" xlink:href="#DejaVuSans-112"/>
     <use x="136.669922" xlink:href="#DejaVuSans-115"/>
     <use x="188.769531" xlink:href="#DejaVuSans-116"/>
     <use x="227.978516" xlink:href="#DejaVuSans-114"/>
     <use x="266.841797" xlink:href="#DejaVuSans-101"/>
     <use x="328.365234" xlink:href="#DejaVuSans-97"/>
     <use x="389.644531" xlink:href="#DejaVuSans-109"/>
    </g>
   </g>
  </g>
  <g id="axes_2">
   <g id="patch_7">
    <path d="M 811.835486 553.3575 
L 1042.014514 553.3575 
L 1042.014514 49.3575 
L 811.835486 49.3575 
z
" style="fill:#e5e5e5;"/>
   </g>
   <g id="matplotlib.axis_3">
    <g id="xtick_11">
     <g id="line2d_33">
      <path clip-path="url(#pe663775b41)" d="M 811.835486 553.3575 
L 811.835486 49.3575 
" style="fill:none;stroke:#ffffff;stroke-linecap:square;stroke-width:0.8;"/>
     </g>
     <g id="line2d_34">
      <g>
       <use style="fill:#555555;stroke:#555555;stroke-width:0.8;" x="811.835486" xlink:href="#m3892123b37" y="553.3575"/>
      </g>
     </g>
     <g id="text_19">
      <!-- 0.0 -->
      <g style="fill:#555555;" transform="translate(808.838124 577.424182)rotate(-50)scale(0.1 -0.1)">
       <defs>
        <path d="M 10.6875 12.40625 
L 21 12.40625 
L 21 0 
L 10.6875 0 
z
" id="DejaVuSans-46"/>
       </defs>
       <use xlink:href="#DejaVuSans-48"/>
       <use x="63.623047" xlink:href="#DejaVuSans-46"/>
       <use x="95.410156" xlink:href="#DejaVuSans-48"/>
      </g>
     </g>
    </g>
    <g id="xtick_12">
     <g id="line2d_35">
      <path clip-path="url(#pe663775b41)" d="M 851.521525 553.3575 
L 851.521525 49.3575 
" style="fill:none;stroke:#ffffff;stroke-linecap:square;stroke-width:0.8;"/>
     </g>
     <g id="line2d_36">
      <g>
       <use style="fill:#555555;stroke:#555555;stroke-width:0.8;" x="851.521525" xlink:href="#m3892123b37" y="553.3575"/>
      </g>
     </g>
     <g id="text_20">
      <!-- 0.2 -->
      <g style="fill:#555555;" transform="translate(848.524163 577.424182)rotate(-50)scale(0.1 -0.1)">
       <use xlink:href="#DejaVuSans-48"/>
       <use x="63.623047" xlink:href="#DejaVuSans-46"/>
       <use x="95.410156" xlink:href="#DejaVuSans-50"/>
      </g>
     </g>
    </g>
    <g id="xtick_13">
     <g id="line2d_37">
      <path clip-path="url(#pe663775b41)" d="M 891.207565 553.3575 
L 891.207565 49.3575 
" style="fill:none;stroke:#ffffff;stroke-linecap:square;stroke-width:0.8;"/>
     </g>
     <g id="line2d_38">
      <g>
       <use style="fill:#555555;stroke:#555555;stroke-width:0.8;" x="891.207565" xlink:href="#m3892123b37" y="553.3575"/>
      </g>
     </g>
     <g id="text_21">
      <!-- 0.3 -->
      <g style="fill:#555555;" transform="translate(888.210203 577.424182)rotate(-50)scale(0.1 -0.1)">
       <use xlink:href="#DejaVuSans-48"/>
       <use x="63.623047" xlink:href="#DejaVuSans-46"/>
       <use x="95.410156" xlink:href="#DejaVuSans-51"/>
      </g>
     </g>
    </g>
    <g id="xtick_14">
     <g id="line2d_39">
      <path clip-path="url(#pe663775b41)" d="M 930.893604 553.3575 
L 930.893604 49.3575 
" style="fill:none;stroke:#ffffff;stroke-linecap:square;stroke-width:0.8;"/>
     </g>
     <g id="line2d_40">
      <g>
       <use style="fill:#555555;stroke:#555555;stroke-width:0.8;" x="930.893604" xlink:href="#m3892123b37" y="553.3575"/>
      </g>
     </g>
     <g id="text_22">
      <!-- 0.5 -->
      <g style="fill:#555555;" transform="translate(927.896242 577.424182)rotate(-50)scale(0.1 -0.1)">
       <use xlink:href="#DejaVuSans-48"/>
       <use x="63.623047" xlink:href="#DejaVuSans-46"/>
       <use x="95.410156" xlink:href="#DejaVuSans-53"/>
      </g>
     </g>
    </g>
    <g id="xtick_15">
     <g id="line2d_41">
      <path clip-path="url(#pe663775b41)" d="M 970.579643 553.3575 
L 970.579643 49.3575 
" style="fill:none;stroke:#ffffff;stroke-linecap:square;stroke-width:0.8;"/>
     </g>
     <g id="line2d_42">
      <g>
       <use style="fill:#555555;stroke:#555555;stroke-width:0.8;" x="970.579643" xlink:href="#m3892123b37" y="553.3575"/>
      </g>
     </g>
     <g id="text_23">
      <!-- 0.7 -->
      <g style="fill:#555555;" transform="translate(967.582281 577.424182)rotate(-50)scale(0.1 -0.1)">
       <defs>
        <path d="M 8.203125 72.90625 
L 55.078125 72.90625 
L 55.078125 68.703125 
L 28.609375 0 
L 18.3125 0 
L 43.21875 64.59375 
L 8.203125 64.59375 
z
" id="DejaVuSans-55"/>
       </defs>
       <use xlink:href="#DejaVuSans-48"/>
       <use x="63.623047" xlink:href="#DejaVuSans-46"/>
       <use x="95.410156" xlink:href="#DejaVuSans-55"/>
      </g>
     </g>
    </g>
    <g id="xtick_16">
     <g id="line2d_43">
      <path clip-path="url(#pe663775b41)" d="M 1010.265683 553.3575 
L 1010.265683 49.3575 
" style="fill:none;stroke:#ffffff;stroke-linecap:square;stroke-width:0.8;"/>
     </g>
     <g id="line2d_44">
      <g>
       <use style="fill:#555555;stroke:#555555;stroke-width:0.8;" x="1010.265683" xlink:href="#m3892123b37" y="553.3575"/>
      </g>
     </g>
     <g id="text_24">
      <!-- 0.8 -->
      <g style="fill:#555555;" transform="translate(1007.268321 577.424182)rotate(-50)scale(0.1 -0.1)">
       <defs>
        <path d="M 31.78125 34.625 
Q 24.75 34.625 20.71875 30.859375 
Q 16.703125 27.09375 16.703125 20.515625 
Q 16.703125 13.921875 20.71875 10.15625 
Q 24.75 6.390625 31.78125 6.390625 
Q 38.8125 6.390625 42.859375 10.171875 
Q 46.921875 13.96875 46.921875 20.515625 
Q 46.921875 27.09375 42.890625 30.859375 
Q 38.875 34.625 31.78125 34.625 
z
M 21.921875 38.8125 
Q 15.578125 40.375 12.03125 44.71875 
Q 8.5 49.078125 8.5 55.328125 
Q 8.5 64.0625 14.71875 69.140625 
Q 20.953125 74.21875 31.78125 74.21875 
Q 42.671875 74.21875 48.875 69.140625 
Q 55.078125 64.0625 55.078125 55.328125 
Q 55.078125 49.078125 51.53125 44.71875 
Q 48 40.375 41.703125 38.8125 
Q 48.828125 37.15625 52.796875 32.3125 
Q 56.78125 27.484375 56.78125 20.515625 
Q 56.78125 9.90625 50.3125 4.234375 
Q 43.84375 -1.421875 31.78125 -1.421875 
Q 19.734375 -1.421875 13.25 4.234375 
Q 6.78125 9.90625 6.78125 20.515625 
Q 6.78125 27.484375 10.78125 32.3125 
Q 14.796875 37.15625 21.921875 38.8125 
z
M 18.3125 54.390625 
Q 18.3125 48.734375 21.84375 45.5625 
Q 25.390625 42.390625 31.78125 42.390625 
Q 38.140625 42.390625 41.71875 45.5625 
Q 45.3125 48.734375 45.3125 54.390625 
Q 45.3125 60.0625 41.71875 63.234375 
Q 38.140625 66.40625 31.78125 66.40625 
Q 25.390625 66.40625 21.84375 63.234375 
Q 18.3125 60.0625 18.3125 54.390625 
z
" id="DejaVuSans-56"/>
       </defs>
       <use xlink:href="#DejaVuSans-48"/>
       <use x="63.623047" xlink:href="#DejaVuSans-46"/>
       <use x="95.410156" xlink:href="#DejaVuSans-56"/>
      </g>
     </g>
    </g>
    <g id="text_25">
     <!-- Normalised gene distance -->
     <g style="fill:#555555;" transform="translate(848.68875 607.879104)scale(0.12 -0.12)">
      <defs>
       <path d="M 9.8125 72.90625 
L 23.09375 72.90625 
L 55.421875 11.921875 
L 55.421875 72.90625 
L 64.984375 72.90625 
L 64.984375 0 
L 51.703125 0 
L 19.390625 60.984375 
L 19.390625 0 
L 9.8125 0 
z
" id="DejaVuSans-78"/>
       <path d="M 9.421875 75.984375 
L 18.40625 75.984375 
L 18.40625 0 
L 9.421875 0 
z
" id="DejaVuSans-108"/>
       <path d="M 45.40625 46.390625 
L 45.40625 75.984375 
L 54.390625 75.984375 
L 54.390625 0 
L 45.40625 0 
L 45.40625 8.203125 
Q 42.578125 3.328125 38.25 0.953125 
Q 33.9375 -1.421875 27.875 -1.421875 
Q 17.96875 -1.421875 11.734375 6.484375 
Q 5.515625 14.40625 5.515625 27.296875 
Q 5.515625 40.1875 11.734375 48.09375 
Q 17.96875 56 27.875 56 
Q 33.9375 56 38.25 53.625 
Q 42.578125 51.265625 45.40625 46.390625 
z
M 14.796875 27.296875 
Q 14.796875 17.390625 18.875 11.75 
Q 22.953125 6.109375 30.078125 6.109375 
Q 37.203125 6.109375 41.296875 11.75 
Q 45.40625 17.390625 45.40625 27.296875 
Q 45.40625 37.203125 41.296875 42.84375 
Q 37.203125 48.484375 30.078125 48.484375 
Q 22.953125 48.484375 18.875 42.84375 
Q 14.796875 37.203125 14.796875 27.296875 
z
" id="DejaVuSans-100"/>
       <path d="M 45.40625 27.984375 
Q 45.40625 37.75 41.375 43.109375 
Q 37.359375 48.484375 30.078125 48.484375 
Q 22.859375 48.484375 18.828125 43.109375 
Q 14.796875 37.75 14.796875 27.984375 
Q 14.796875 18.265625 18.828125 12.890625 
Q 22.859375 7.515625 30.078125 7.515625 
Q 37.359375 7.515625 41.375 12.890625 
Q 45.40625 18.265625 45.40625 27.984375 
z
M 54.390625 6.78125 
Q 54.390625 -7.171875 48.1875 -13.984375 
Q 42 -20.796875 29.203125 -20.796875 
Q 24.46875 -20.796875 20.265625 -20.09375 
Q 16.0625 -19.390625 12.109375 -17.921875 
L 12.109375 -9.1875 
Q 16.0625 -11.328125 19.921875 -12.34375 
Q 23.78125 -13.375 27.78125 -13.375 
Q 36.625 -13.375 41.015625 -8.765625 
Q 45.40625 -4.15625 45.40625 5.171875 
L 45.40625 9.625 
Q 42.625 4.78125 38.28125 2.390625 
Q 33.9375 0 27.875 0 
Q 17.828125 0 11.671875 7.65625 
Q 5.515625 15.328125 5.515625 27.984375 
Q 5.515625 40.671875 11.671875 48.328125 
Q 17.828125 56 27.875 56 
Q 33.9375 56 38.28125 53.609375 
Q 42.625 51.21875 45.40625 46.390625 
L 45.40625 54.6875 
L 54.390625 54.6875 
z
" id="DejaVuSans-103"/>
      </defs>
      <use xlink:href="#DejaVuSans-78"/>
      <use x="74.804688" xlink:href="#DejaVuSans-111"/>
      <use x="135.986328" xlink:href="#DejaVuSans-114"/>
      <use x="175.349609" xlink:href="#DejaVuSans-109"/>
      <use x="272.761719" xlink:href="#DejaVuSans-97"/>
      <use x="334.041016" xlink:href="#DejaVuSans-108"/>
      <use x="361.824219" xlink:href="#DejaVuSans-105"/>
      <use x="389.607422" xlink:href="#DejaVuSans-115"/>
      <use x="441.707031" xlink:href="#DejaVuSans-101"/>
      <use x="503.230469" xlink:href="#DejaVuSans-100"/>
      <use x="566.707031" xlink:href="#DejaVuSans-32"/>
      <use x="598.494141" xlink:href="#DejaVuSans-103"/>
      <use x="661.970703" xlink:href="#DejaVuSans-101"/>
      <use x="723.494141" xlink:href="#DejaVuSans-110"/>
      <use x="786.873047" xlink:href="#DejaVuSans-101"/>
      <use x="848.396484" xlink:href="#DejaVuSans-32"/>
      <use x="880.183594" xlink:href="#DejaVuSans-100"/>
      <use x="943.660156" xlink:href="#DejaVuSans-105"/>
      <use x="971.443359" xlink:href="#DejaVuSans-115"/>
      <use x="1023.542969" xlink:href="#DejaVuSans-116"/>
      <use x="1062.751953" xlink:href="#DejaVuSans-97"/>
      <use x="1124.03125" xlink:href="#DejaVuSans-110"/>
      <use x="1187.410156" xlink:href="#DejaVuSans-99"/>
      <use x="1242.390625" xlink:href="#DejaVuSans-101"/>
     </g>
    </g>
   </g>
   <g id="matplotlib.axis_4">
    <g id="ytick_7">
     <g id="line2d_45">
      <path clip-path="url(#pe663775b41)" d="M 811.835486 553.3575 
L 1042.014514 553.3575 
" style="fill:none;stroke:#ffffff;stroke-linecap:square;stroke-width:0.8;"/>
     </g>
     <g id="line2d_46">
      <g>
       <use style="fill:#555555;stroke:#555555;stroke-width:0.8;" x="811.835486" xlink:href="#m741a9b7e05" y="553.3575"/>
      </g>
     </g>
    </g>
    <g id="ytick_8">
     <g id="line2d_47">
      <path clip-path="url(#pe663775b41)" d="M 811.835486 467.153366 
L 1042.014514 467.153366 
" style="fill:none;stroke:#ffffff;stroke-linecap:square;stroke-width:0.8;"/>
     </g>
     <g id="line2d_48">
      <g>
       <use style="fill:#555555;stroke:#555555;stroke-width:0.8;" x="811.835486" xlink:href="#m741a9b7e05" y="467.153366"/>
      </g>
     </g>
    </g>
    <g id="ytick_9">
     <g id="line2d_49">
      <path clip-path="url(#pe663775b41)" d="M 811.835486 380.949232 
L 1042.014514 380.949232 
" style="fill:none;stroke:#ffffff;stroke-linecap:square;stroke-width:0.8;"/>
     </g>
     <g id="line2d_50">
      <g>
       <use style="fill:#555555;stroke:#555555;stroke-width:0.8;" x="811.835486" xlink:href="#m741a9b7e05" y="380.949232"/>
      </g>
     </g>
    </g>
    <g id="ytick_10">
     <g id="line2d_51">
      <path clip-path="url(#pe663775b41)" d="M 811.835486 294.745097 
L 1042.014514 294.745097 
" style="fill:none;stroke:#ffffff;stroke-linecap:square;stroke-width:0.8;"/>
     </g>
     <g id="line2d_52">
      <g>
       <use style="fill:#555555;stroke:#555555;stroke-width:0.8;" x="811.835486" xlink:href="#m741a9b7e05" y="294.745097"/>
      </g>
     </g>
    </g>
    <g id="ytick_11">
     <g id="line2d_53">
      <path clip-path="url(#pe663775b41)" d="M 811.835486 208.540963 
L 1042.014514 208.540963 
" style="fill:none;stroke:#ffffff;stroke-linecap:square;stroke-width:0.8;"/>
     </g>
     <g id="line2d_54">
      <g>
       <use style="fill:#555555;stroke:#555555;stroke-width:0.8;" x="811.835486" xlink:href="#m741a9b7e05" y="208.540963"/>
      </g>
     </g>
    </g>
    <g id="ytick_12">
     <g id="line2d_55">
      <path clip-path="url(#pe663775b41)" d="M 811.835486 122.336829 
L 1042.014514 122.336829 
" style="fill:none;stroke:#ffffff;stroke-linecap:square;stroke-width:0.8;"/>
     </g>
     <g id="line2d_56">
      <g>
       <use style="fill:#555555;stroke:#555555;stroke-width:0.8;" x="811.835486" xlink:href="#m741a9b7e05" y="122.336829"/>
      </g>
     </g>
    </g>
   </g>
   <g id="PolyCollection_2">
    <defs>
     <path d="M 811.835486 -84.04222 
L 811.835486 -360.316258 
L 819.772694 -395.561432 
L 827.709902 -451.204855 
L 835.64711 -484.887209 
L 843.584317 -562.304359 
L 851.521525 -588.04222 
L 859.458733 -494.899438 
L 867.395941 -415.6848 
L 875.333149 -456.53517 
L 883.270357 -489.582257 
L 891.207565 -382.791498 
L 899.144772 -328.67228 
L 907.08198 -413.123389 
L 915.019188 -428.319938 
L 922.956396 -356.027988 
L 930.893604 -359.522524 
L 938.830812 -371.05692 
L 946.76802 -458.858549 
L 954.705228 -416.944218 
L 962.642435 -402.867458 
L 970.579643 -373.394596 
L 978.516851 -431.227362 
L 986.454059 -479.069274 
L 994.391267 -340.20172 
L 1002.328475 -274.208664 
L 1010.265683 -356.281517 
L 1018.20289 -400.302632 
L 1026.140098 -433.368516 
L 1034.077306 -389.379593 
L 1042.014514 -395.740288 
L 1042.014514 -84.04222 
L 1042.014514 -84.04222 
L 1034.077306 -84.04222 
L 1026.140098 -84.04222 
L 1018.20289 -84.04222 
L 1010.265683 -84.04222 
L 1002.328475 -84.04222 
L 994.391267 -84.04222 
L 986.454059 -84.04222 
L 978.516851 -84.04222 
L 970.579643 -84.04222 
L 962.642435 -84.04222 
L 954.705228 -84.04222 
L 946.76802 -84.04222 
L 938.830812 -84.04222 
L 930.893604 -84.04222 
L 922.956396 -84.04222 
L 915.019188 -84.04222 
L 907.08198 -84.04222 
L 899.144772 -84.04222 
L 891.207565 -84.04222 
L 883.270357 -84.04222 
L 875.333149 -84.04222 
L 867.395941 -84.04222 
L 859.458733 -84.04222 
L 851.521525 -84.04222 
L 843.584317 -84.04222 
L 835.64711 -84.04222 
L 827.709902 -84.04222 
L 819.772694 -84.04222 
L 811.835486 -84.04222 
z
" id="ma46d2a4ac3" style="stroke:#2e8b57;stroke-width:0.5;"/>
    </defs>
    <g clip-path="url(#pe663775b41)">
     <use style="fill:#2e8b57;stroke:#2e8b57;stroke-width:0.5;" x="0" xlink:href="#ma46d2a4ac3" y="637.39972"/>
    </g>
   </g>
   <g id="patch_8">
    <path d="M 811.835486 553.3575 
L 811.835486 49.3575 
" style="fill:none;stroke:#ffffff;stroke-linecap:square;stroke-linejoin:miter;"/>
   </g>
   <g id="patch_9">
    <path d="M 1042.014514 553.3575 
L 1042.014514 49.3575 
" style="fill:none;stroke:#ffffff;stroke-linecap:square;stroke-linejoin:miter;"/>
   </g>
   <g id="patch_10">
    <path d="M 811.835486 553.3575 
L 1042.014514 553.3575 
" style="fill:none;stroke:#ffffff;stroke-linecap:square;stroke-linejoin:miter;"/>
   </g>
   <g id="patch_11">
    <path d="M 811.835486 49.3575 
L 1042.014514 49.3575 
" style="fill:none;stroke:#ffffff;stroke-linecap:square;stroke-linejoin:miter;"/>
   </g>
   <g id="text_26">
    <!-- Metagene body -->
    <g transform="translate(864.7375 19.3575)scale(0.16 -0.16)">
     <defs>
      <path d="M 9.8125 72.90625 
L 24.515625 72.90625 
L 43.109375 23.296875 
L 61.8125 72.90625 
L 76.515625 72.90625 
L 76.515625 0 
L 66.890625 0 
L 66.890625 64.015625 
L 48.09375 14.015625 
L 38.1875 14.015625 
L 19.390625 64.015625 
L 19.390625 0 
L 9.8125 0 
z
" id="DejaVuSans-77"/>
      <path d="M 48.6875 27.296875 
Q 48.6875 37.203125 44.609375 42.84375 
Q 40.53125 48.484375 33.40625 48.484375 
Q 26.265625 48.484375 22.1875 42.84375 
Q 18.109375 37.203125 18.109375 27.296875 
Q 18.109375 17.390625 22.1875 11.75 
Q 26.265625 6.109375 33.40625 6.109375 
Q 40.53125 6.109375 44.609375 11.75 
Q 48.6875 17.390625 48.6875 27.296875 
z
M 18.109375 46.390625 
Q 20.953125 51.265625 25.265625 53.625 
Q 29.59375 56 35.59375 56 
Q 45.5625 56 51.78125 48.09375 
Q 58.015625 40.1875 58.015625 27.296875 
Q 58.015625 14.40625 51.78125 6.484375 
Q 45.5625 -1.421875 35.59375 -1.421875 
Q 29.59375 -1.421875 25.265625 0.953125 
Q 20.953125 3.328125 18.109375 8.203125 
L 18.109375 0 
L 9.078125 0 
L 9.078125 75.984375 
L 18.109375 75.984375 
z
" id="DejaVuSans-98"/>
      <path d="M 32.171875 -5.078125 
Q 28.375 -14.84375 24.75 -17.8125 
Q 21.140625 -20.796875 15.09375 -20.796875 
L 7.90625 -20.796875 
L 7.90625 -13.28125 
L 13.1875 -13.28125 
Q 16.890625 -13.28125 18.9375 -11.515625 
Q 21 -9.765625 23.484375 -3.21875 
L 25.09375 0.875 
L 2.984375 54.6875 
L 12.5 54.6875 
L 29.59375 11.921875 
L 46.6875 54.6875 
L 56.203125 54.6875 
z
" id="DejaVuSans-121"/>
     </defs>
     <use xlink:href="#DejaVuSans-77"/>
     <use x="86.279297" xlink:href="#DejaVuSans-101"/>
     <use x="147.802734" xlink:href="#DejaVuSans-116"/>
     <use x="187.011719" xlink:href="#DejaVuSans-97"/>
     <use x="248.291016" xlink:href="#DejaVuSans-103"/>
     <use x="311.767578" xlink:href="#DejaVuSans-101"/>
     <use x="373.291016" xlink:href="#DejaVuSans-110"/>
     <use x="436.669922" xlink:href="#DejaVuSans-101"/>
     <use x="498.193359" xlink:href="#DejaVuSans-32"/>
     <use x="529.980469" xlink:href="#DejaVuSans-98"/>
     <use x="593.457031" xlink:href="#DejaVuSans-111"/>
     <use x="654.638672" xlink:href="#DejaVuSans-100"/>
     <use x="718.115234" xlink:href="#DejaVuSans-121"/>
    </g>
   </g>
  </g>
  <g id="axes_3">
   <g id="patch_12">
    <path d="M 1059.661573 553.3575 
L 1826.925 553.3575 
L 1826.925 49.3575 
L 1059.661573 49.3575 
z
" style="fill:#e5e5e5;"/>
   </g>
   <g id="matplotlib.axis_5">
    <g id="xtick_17">
     <g id="line2d_57">
      <path clip-path="url(#p8019be9e79)" d="M 1059.661573 553.3575 
L 1059.661573 49.3575 
" style="fill:none;stroke:#ffffff;stroke-linecap:square;stroke-width:0.8;"/>
     </g>
     <g id="line2d_58">
      <g>
       <use style="fill:#555555;stroke:#555555;stroke-width:0.8;" x="1059.661573" xlink:href="#m3892123b37" y="553.3575"/>
      </g>
     </g>
     <g id="text_27">
      <!-- 0 -->
      <g style="fill:#555555;" transform="translate(1059.730509 570.115639)rotate(-50)scale(0.1 -0.1)">
       <use xlink:href="#DejaVuSans-48"/>
      </g>
     </g>
    </g>
    <g id="xtick_18">
     <g id="line2d_59">
      <path clip-path="url(#p8019be9e79)" d="M 1137.162929 553.3575 
L 1137.162929 49.3575 
" style="fill:none;stroke:#ffffff;stroke-linecap:square;stroke-width:0.8;"/>
     </g>
     <g id="line2d_60">
      <g>
       <use style="fill:#555555;stroke:#555555;stroke-width:0.8;" x="1137.162929" xlink:href="#m3892123b37" y="553.3575"/>
      </g>
     </g>
     <g id="text_28">
      <!-- 50000 -->
      <g style="fill:#555555;" transform="translate(1129.052393 589.61147)rotate(-50)scale(0.1 -0.1)">
       <use xlink:href="#DejaVuSans-53"/>
       <use x="63.623047" xlink:href="#DejaVuSans-48"/>
       <use x="127.246094" xlink:href="#DejaVuSans-48"/>
       <use x="190.869141" xlink:href="#DejaVuSans-48"/>
       <use x="254.492188" xlink:href="#DejaVuSans-48"/>
      </g>
     </g>
    </g>
    <g id="xtick_19">
     <g id="line2d_61">
      <path clip-path="url(#p8019be9e79)" d="M 1214.664285 553.3575 
L 1214.664285 49.3575 
" style="fill:none;stroke:#ffffff;stroke-linecap:square;stroke-width:0.8;"/>
     </g>
     <g id="line2d_62">
      <g>
       <use style="fill:#555555;stroke:#555555;stroke-width:0.8;" x="1214.664285" xlink:href="#m3892123b37" y="553.3575"/>
      </g>
     </g>
     <g id="text_29">
      <!-- 100000 -->
      <g style="fill:#555555;" transform="translate(1204.508881 594.485428)rotate(-50)scale(0.1 -0.1)">
       <use xlink:href="#DejaVuSans-49"/>
       <use x="63.623047" xlink:href="#DejaVuSans-48"/>
       <use x="127.246094" xlink:href="#DejaVuSans-48"/>
       <use x="190.869141" xlink:href="#DejaVuSans-48"/>
       <use x="254.492188" xlink:href="#DejaVuSans-48"/>
       <use x="318.115234" xlink:href="#DejaVuSans-48"/>
      </g>
     </g>
    </g>
    <g id="xtick_20">
     <g id="line2d_63">
      <path clip-path="url(#p8019be9e79)" d="M 1292.165642 553.3575 
L 1292.165642 49.3575 
" style="fill:none;stroke:#ffffff;stroke-linecap:square;stroke-width:0.8;"/>
     </g>
     <g id="line2d_64">
      <g>
       <use style="fill:#555555;stroke:#555555;stroke-width:0.8;" x="1292.165642" xlink:href="#m3892123b37" y="553.3575"/>
      </g>
     </g>
     <g id="text_30">
      <!-- 150000 -->
      <g style="fill:#555555;" transform="translate(1282.010237 594.485428)rotate(-50)scale(0.1 -0.1)">
       <use xlink:href="#DejaVuSans-49"/>
       <use x="63.623047" xlink:href="#DejaVuSans-53"/>
       <use x="127.246094" xlink:href="#DejaVuSans-48"/>
       <use x="190.869141" xlink:href="#DejaVuSans-48"/>
       <use x="254.492188" xlink:href="#DejaVuSans-48"/>
       <use x="318.115234" xlink:href="#DejaVuSans-48"/>
      </g>
     </g>
    </g>
    <g id="xtick_21">
     <g id="line2d_65">
      <path clip-path="url(#p8019be9e79)" d="M 1369.666998 553.3575 
L 1369.666998 49.3575 
" style="fill:none;stroke:#ffffff;stroke-linecap:square;stroke-width:0.8;"/>
     </g>
     <g id="line2d_66">
      <g>
       <use style="fill:#555555;stroke:#555555;stroke-width:0.8;" x="1369.666998" xlink:href="#m3892123b37" y="553.3575"/>
      </g>
     </g>
     <g id="text_31">
      <!-- 200000 -->
      <g style="fill:#555555;" transform="translate(1359.511593 594.485428)rotate(-50)scale(0.1 -0.1)">
       <use xlink:href="#DejaVuSans-50"/>
       <use x="63.623047" xlink:href="#DejaVuSans-48"/>
       <use x="127.246094" xlink:href="#DejaVuSans-48"/>
       <use x="190.869141" xlink:href="#DejaVuSans-48"/>
       <use x="254.492188" xlink:href="#DejaVuSans-48"/>
       <use x="318.115234" xlink:href="#DejaVuSans-48"/>
      </g>
     </g>
    </g>
    <g id="xtick_22">
     <g id="line2d_67">
      <path clip-path="url(#p8019be9e79)" d="M 1447.168354 553.3575 
L 1447.168354 49.3575 
" style="fill:none;stroke:#ffffff;stroke-linecap:square;stroke-width:0.8;"/>
     </g>
     <g id="line2d_68">
      <g>
       <use style="fill:#555555;stroke:#555555;stroke-width:0.8;" x="1447.168354" xlink:href="#m3892123b37" y="553.3575"/>
      </g>
     </g>
     <g id="text_32">
      <!-- 250000 -->
      <g style="fill:#555555;" transform="translate(1437.01295 594.485428)rotate(-50)scale(0.1 -0.1)">
       <use xlink:href="#DejaVuSans-50"/>
       <use x="63.623047" xlink:href="#DejaVuSans-53"/>
       <use x="127.246094" xlink:href="#DejaVuSans-48"/>
       <use x="190.869141" xlink:href="#DejaVuSans-48"/>
       <use x="254.492188" xlink:href="#DejaVuSans-48"/>
       <use x="318.115234" xlink:href="#DejaVuSans-48"/>
      </g>
     </g>
    </g>
    <g id="xtick_23">
     <g id="line2d_69">
      <path clip-path="url(#p8019be9e79)" d="M 1524.669711 553.3575 
L 1524.669711 49.3575 
" style="fill:none;stroke:#ffffff;stroke-linecap:square;stroke-width:0.8;"/>
     </g>
     <g id="line2d_70">
      <g>
       <use style="fill:#555555;stroke:#555555;stroke-width:0.8;" x="1524.669711" xlink:href="#m3892123b37" y="553.3575"/>
      </g>
     </g>
     <g id="text_33">
      <!-- 300000 -->
      <g style="fill:#555555;" transform="translate(1514.514306 594.485428)rotate(-50)scale(0.1 -0.1)">
       <use xlink:href="#DejaVuSans-51"/>
       <use x="63.623047" xlink:href="#DejaVuSans-48"/>
       <use x="127.246094" xlink:href="#DejaVuSans-48"/>
       <use x="190.869141" xlink:href="#DejaVuSans-48"/>
       <use x="254.492188" xlink:href="#DejaVuSans-48"/>
       <use x="318.115234" xlink:href="#DejaVuSans-48"/>
      </g>
     </g>
    </g>
    <g id="xtick_24">
     <g id="line2d_71">
      <path clip-path="url(#p8019be9e79)" d="M 1602.171067 553.3575 
L 1602.171067 49.3575 
" style="fill:none;stroke:#ffffff;stroke-linecap:square;stroke-width:0.8;"/>
     </g>
     <g id="line2d_72">
      <g>
       <use style="fill:#555555;stroke:#555555;stroke-width:0.8;" x="1602.171067" xlink:href="#m3892123b37" y="553.3575"/>
      </g>
     </g>
     <g id="text_34">
      <!-- 350000 -->
      <g style="fill:#555555;" transform="translate(1592.015662 594.485428)rotate(-50)scale(0.1 -0.1)">
       <use xlink:href="#DejaVuSans-51"/>
       <use x="63.623047" xlink:href="#DejaVuSans-53"/>
       <use x="127.246094" xlink:href="#DejaVuSans-48"/>
       <use x="190.869141" xlink:href="#DejaVuSans-48"/>
       <use x="254.492188" xlink:href="#DejaVuSans-48"/>
       <use x="318.115234" xlink:href="#DejaVuSans-48"/>
      </g>
     </g>
    </g>
    <g id="xtick_25">
     <g id="line2d_73">
      <path clip-path="url(#p8019be9e79)" d="M 1679.672423 553.3575 
L 1679.672423 49.3575 
" style="fill:none;stroke:#ffffff;stroke-linecap:square;stroke-width:0.8;"/>
     </g>
     <g id="line2d_74">
      <g>
       <use style="fill:#555555;stroke:#555555;stroke-width:0.8;" x="1679.672423" xlink:href="#m3892123b37" y="553.3575"/>
      </g>
     </g>
     <g id="text_35">
      <!-- 400000 -->
      <g style="fill:#555555;" transform="translate(1669.517018 594.485428)rotate(-50)scale(0.1 -0.1)">
       <use xlink:href="#DejaVuSans-52"/>
       <use x="63.623047" xlink:href="#DejaVuSans-48"/>
       <use x="127.246094" xlink:href="#DejaVuSans-48"/>
       <use x="190.869141" xlink:href="#DejaVuSans-48"/>
       <use x="254.492188" xlink:href="#DejaVuSans-48"/>
       <use x="318.115234" xlink:href="#DejaVuSans-48"/>
      </g>
     </g>
    </g>
    <g id="xtick_26">
     <g id="line2d_75">
      <path clip-path="url(#p8019be9e79)" d="M 1757.173779 553.3575 
L 1757.173779 49.3575 
" style="fill:none;stroke:#ffffff;stroke-linecap:square;stroke-width:0.8;"/>
     </g>
     <g id="line2d_76">
      <g>
       <use style="fill:#555555;stroke:#555555;stroke-width:0.8;" x="1757.173779" xlink:href="#m3892123b37" y="553.3575"/>
      </g>
     </g>
     <g id="text_36">
      <!-- 450000 -->
      <g style="fill:#555555;" transform="translate(1747.018375 594.485428)rotate(-50)scale(0.1 -0.1)">
       <use xlink:href="#DejaVuSans-52"/>
       <use x="63.623047" xlink:href="#DejaVuSans-53"/>
       <use x="127.246094" xlink:href="#DejaVuSans-48"/>
       <use x="190.869141" xlink:href="#DejaVuSans-48"/>
       <use x="254.492188" xlink:href="#DejaVuSans-48"/>
       <use x="318.115234" xlink:href="#DejaVuSans-48"/>
      </g>
     </g>
    </g>
    <g id="text_37">
     <!-- Distance from TES -->
     <g style="fill:#555555;" transform="translate(1388.020161 624.94035)scale(0.12 -0.12)">
      <defs>
       <path d="M 37.109375 75.984375 
L 37.109375 68.5 
L 28.515625 68.5 
Q 23.6875 68.5 21.796875 66.546875 
Q 19.921875 64.59375 19.921875 59.515625 
L 19.921875 54.6875 
L 34.71875 54.6875 
L 34.71875 47.703125 
L 19.921875 47.703125 
L 19.921875 0 
L 10.890625 0 
L 10.890625 47.703125 
L 2.296875 47.703125 
L 2.296875 54.6875 
L 10.890625 54.6875 
L 10.890625 58.5 
Q 10.890625 67.625 15.140625 71.796875 
Q 19.390625 75.984375 28.609375 75.984375 
z
" id="DejaVuSans-102"/>
       <path d="M 9.8125 72.90625 
L 55.90625 72.90625 
L 55.90625 64.59375 
L 19.671875 64.59375 
L 19.671875 43.015625 
L 54.390625 43.015625 
L 54.390625 34.71875 
L 19.671875 34.71875 
L 19.671875 8.296875 
L 56.78125 8.296875 
L 56.78125 0 
L 9.8125 0 
z
" id="DejaVuSans-69"/>
      </defs>
      <use xlink:href="#DejaVuSans-68"/>
      <use x="77.001953" xlink:href="#DejaVuSans-105"/>
      <use x="104.785156" xlink:href="#DejaVuSans-115"/>
      <use x="156.884766" xlink:href="#DejaVuSans-116"/>
      <use x="196.09375" xlink:href="#DejaVuSans-97"/>
      <use x="257.373047" xlink:href="#DejaVuSans-110"/>
      <use x="320.751953" xlink:href="#DejaVuSans-99"/>
      <use x="375.732422" xlink:href="#DejaVuSans-101"/>
      <use x="437.255859" xlink:href="#DejaVuSans-32"/>
      <use x="469.042969" xlink:href="#DejaVuSans-102"/>
      <use x="504.248047" xlink:href="#DejaVuSans-114"/>
      <use x="543.111328" xlink:href="#DejaVuSans-111"/>
      <use x="604.292969" xlink:href="#DejaVuSans-109"/>
      <use x="701.705078" xlink:href="#DejaVuSans-32"/>
      <use x="733.492188" xlink:href="#DejaVuSans-84"/>
      <use x="794.576172" xlink:href="#DejaVuSans-69"/>
      <use x="857.759766" xlink:href="#DejaVuSans-83"/>
     </g>
    </g>
   </g>
   <g id="matplotlib.axis_6">
    <g id="ytick_13">
     <g id="line2d_77">
      <path clip-path="url(#p8019be9e79)" d="M 1059.661573 553.3575 
L 1826.925 553.3575 
" style="fill:none;stroke:#ffffff;stroke-linecap:square;stroke-width:0.8;"/>
     </g>
     <g id="line2d_78">
      <g>
       <use style="fill:#555555;stroke:#555555;stroke-width:0.8;" x="1059.661573" xlink:href="#m741a9b7e05" y="553.3575"/>
      </g>
     </g>
    </g>
    <g id="ytick_14">
     <g id="line2d_79">
      <path clip-path="url(#p8019be9e79)" d="M 1059.661573 467.153366 
L 1826.925 467.153366 
" style="fill:none;stroke:#ffffff;stroke-linecap:square;stroke-width:0.8;"/>
     </g>
     <g id="line2d_80">
      <g>
       <use style="fill:#555555;stroke:#555555;stroke-width:0.8;" x="1059.661573" xlink:href="#m741a9b7e05" y="467.153366"/>
      </g>
     </g>
    </g>
    <g id="ytick_15">
     <g id="line2d_81">
      <path clip-path="url(#p8019be9e79)" d="M 1059.661573 380.949232 
L 1826.925 380.949232 
" style="fill:none;stroke:#ffffff;stroke-linecap:square;stroke-width:0.8;"/>
     </g>
     <g id="line2d_82">
      <g>
       <use style="fill:#555555;stroke:#555555;stroke-width:0.8;" x="1059.661573" xlink:href="#m741a9b7e05" y="380.949232"/>
      </g>
     </g>
    </g>
    <g id="ytick_16">
     <g id="line2d_83">
      <path clip-path="url(#p8019be9e79)" d="M 1059.661573 294.745097 
L 1826.925 294.745097 
" style="fill:none;stroke:#ffffff;stroke-linecap:square;stroke-width:0.8;"/>
     </g>
     <g id="line2d_84">
      <g>
       <use style="fill:#555555;stroke:#555555;stroke-width:0.8;" x="1059.661573" xlink:href="#m741a9b7e05" y="294.745097"/>
      </g>
     </g>
    </g>
    <g id="ytick_17">
     <g id="line2d_85">
      <path clip-path="url(#p8019be9e79)" d="M 1059.661573 208.540963 
L 1826.925 208.540963 
" style="fill:none;stroke:#ffffff;stroke-linecap:square;stroke-width:0.8;"/>
     </g>
     <g id="line2d_86">
      <g>
       <use style="fill:#555555;stroke:#555555;stroke-width:0.8;" x="1059.661573" xlink:href="#m741a9b7e05" y="208.540963"/>
      </g>
     </g>
    </g>
    <g id="ytick_18">
     <g id="line2d_87">
      <path clip-path="url(#p8019be9e79)" d="M 1059.661573 122.336829 
L 1826.925 122.336829 
" style="fill:none;stroke:#ffffff;stroke-linecap:square;stroke-width:0.8;"/>
     </g>
     <g id="line2d_88">
      <g>
       <use style="fill:#555555;stroke:#555555;stroke-width:0.8;" x="1059.661573" xlink:href="#m741a9b7e05" y="122.336829"/>
      </g>
     </g>
    </g>
   </g>
   <g id="PolyCollection_3">
    <defs>
     <path d="M 1059.661573 -84.04222 
L 1059.661573 -391.819542 
L 1067.411709 -383.707618 
L 1075.161844 -375.217147 
L 1082.91198 -357.699892 
L 1090.662115 -332.744761 
L 1098.412251 -325.935287 
L 1106.162387 -331.327131 
L 1113.912522 -324.719497 
L 1121.662658 -318.828039 
L 1129.412794 -320.834675 
L 1137.162929 -320.12755 
L 1144.913065 -323.93158 
L 1152.6632 -336.953372 
L 1160.413336 -342.914451 
L 1168.163472 -337.565379 
L 1175.913607 -332.252845 
L 1183.663743 -338.682765 
L 1191.413879 -335.007962 
L 1199.164014 -324.262496 
L 1206.91415 -320.635858 
L 1214.664285 -315.13155 
L 1222.414421 -317.023854 
L 1230.164557 -327.753765 
L 1237.914692 -349.462288 
L 1245.664828 -350.702079 
L 1253.414964 -333.839518 
L 1261.165099 -333.021705 
L 1268.915235 -337.548931 
L 1276.66537 -336.495339 
L 1284.415506 -313.513822 
L 1292.165642 -302.510601 
L 1299.915777 -306.617283 
L 1307.665913 -298.742137 
L 1315.416049 -301.878085 
L 1323.166184 -313.802231 
L 1330.91632 -324.225209 
L 1338.666455 -321.74023 
L 1346.416591 -297.802302 
L 1354.166727 -296.582888 
L 1361.916862 -317.404409 
L 1369.666998 -317.893446 
L 1377.417134 -311.660473 
L 1385.167269 -320.76296 
L 1392.917405 -339.815052 
L 1400.66754 -335.638612 
L 1408.417676 -308.805418 
L 1416.167812 -289.503689 
L 1423.917947 -290.547111 
L 1431.668083 -299.995948 
L 1439.418219 -301.302419 
L 1447.168354 -309.885644 
L 1454.91849 -314.618883 
L 1462.668626 -311.418744 
L 1470.418761 -313.491595 
L 1478.168897 -309.085013 
L 1485.919032 -305.134862 
L 1493.669168 -301.856308 
L 1501.419304 -298.189414 
L 1509.169439 -288.310174 
L 1516.919575 -297.928883 
L 1524.669711 -308.062073 
L 1532.419846 -319.935411 
L 1540.169982 -331.407853 
L 1547.920117 -330.641112 
L 1555.670253 -316.752602 
L 1563.420389 -314.04883 
L 1571.170524 -330.121826 
L 1578.92066 -318.969209 
L 1586.670796 -298.26768 
L 1594.420931 -300.85818 
L 1602.171067 -312.013299 
L 1609.921202 -318.698632 
L 1617.671338 -312.911632 
L 1625.421474 -315.35351 
L 1633.171609 -330.826799 
L 1640.921745 -332.026669 
L 1648.671881 -318.40627 
L 1656.422016 -301.3396 
L 1664.172152 -299.540786 
L 1671.922287 -307.999944 
L 1679.672423 -328.003026 
L 1687.422559 -347.55712 
L 1695.172694 -320.644449 
L 1702.92283 -299.993817 
L 1710.672966 -298.109844 
L 1718.423101 -304.065314 
L 1726.173237 -311.501813 
L 1733.923372 -321.530443 
L 1741.673508 -335.873718 
L 1749.423644 -338.638828 
L 1757.173779 -326.849373 
L 1764.923915 -319.738425 
L 1772.674051 -321.760279 
L 1780.424186 -331.118503 
L 1788.174322 -327.56007 
L 1795.924457 -316.839452 
L 1803.674593 -309.59339 
L 1811.424729 -295.353655 
L 1819.174864 -297.605086 
L 1826.925 -327.170036 
L 1826.925 -84.04222 
L 1826.925 -84.04222 
L 1819.174864 -84.04222 
L 1811.424729 -84.04222 
L 1803.674593 -84.04222 
L 1795.924457 -84.04222 
L 1788.174322 -84.04222 
L 1780.424186 -84.04222 
L 1772.674051 -84.04222 
L 1764.923915 -84.04222 
L 1757.173779 -84.04222 
L 1749.423644 -84.04222 
L 1741.673508 -84.04222 
L 1733.923372 -84.04222 
L 1726.173237 -84.04222 
L 1718.423101 -84.04222 
L 1710.672966 -84.04222 
L 1702.92283 -84.04222 
L 1695.172694 -84.04222 
L 1687.422559 -84.04222 
L 1679.672423 -84.04222 
L 1671.922287 -84.04222 
L 1664.172152 -84.04222 
L 1656.422016 -84.04222 
L 1648.671881 -84.04222 
L 1640.921745 -84.04222 
L 1633.171609 -84.04222 
L 1625.421474 -84.04222 
L 1617.671338 -84.04222 
L 1609.921202 -84.04222 
L 1602.171067 -84.04222 
L 1594.420931 -84.04222 
L 1586.670796 -84.04222 
L 1578.92066 -84.04222 
L 1571.170524 -84.04222 
L 1563.420389 -84.04222 
L 1555.670253 -84.04222 
L 1547.920117 -84.04222 
L 1540.169982 -84.04222 
L 1532.419846 -84.04222 
L 1524.669711 -84.04222 
L 1516.919575 -84.04222 
L 1509.169439 -84.04222 
L 1501.419304 -84.04222 
L 1493.669168 -84.04222 
L 1485.919032 -84.04222 
L 1478.168897 -84.04222 
L 1470.418761 -84.04222 
L 1462.668626 -84.04222 
L 1454.91849 -84.04222 
L 1447.168354 -84.04222 
L 1439.418219 -84.04222 
L 1431.668083 -84.04222 
L 1423.917947 -84.04222 
L 1416.167812 -84.04222 
L 1408.417676 -84.04222 
L 1400.66754 -84.04222 
L 1392.917405 -84.04222 
L 1385.167269 -84.04222 
L 1377.417134 -84.04222 
L 1369.666998 -84.04222 
L 1361.916862 -84.04222 
L 1354.166727 -84.04222 
L 1346.416591 -84.04222 
L 1338.666455 -84.04222 
L 1330.91632 -84.04222 
L 1323.166184 -84.04222 
L 1315.416049 -84.04222 
L 1307.665913 -84.04222 
L 1299.915777 -84.04222 
L 1292.165642 -84.04222 
L 1284.415506 -84.04222 
L 1276.66537 -84.04222 
L 1268.915235 -84.04222 
L 1261.165099 -84.04222 
L 1253.414964 -84.04222 
L 1245.664828 -84.04222 
L 1237.914692 -84.04222 
L 1230.164557 -84.04222 
L 1222.414421 -84.04222 
L 1214.664285 -84.04222 
L 1206.91415 -84.04222 
L 1199.164014 -84.04222 
L 1191.413879 -84.04222 
L 1183.663743 -84.04222 
L 1175.913607 -84.04222 
L 1168.163472 -84.04222 
L 1160.413336 -84.04222 
L 1152.6632 -84.04222 
L 1144.913065 -84.04222 
L 1137.162929 -84.04222 
L 1129.412794 -84.04222 
L 1121.662658 -84.04222 
L 1113.912522 -84.04222 
L 1106.162387 -84.04222 
L 1098.412251 -84.04222 
L 1090.662115 -84.04222 
L 1082.91198 -84.04222 
L 1075.161844 -84.04222 
L 1067.411709 -84.04222 
L 1059.661573 -84.04222 
z
" id="mb42a93de19" style="stroke:#404040;stroke-width:0.5;"/>
    </defs>
    <g clip-path="url(#p8019be9e79)">
     <use style="fill:#404040;stroke:#404040;stroke-width:0.5;" x="0" xlink:href="#mb42a93de19" y="637.39972"/>
    </g>
   </g>
   <g id="patch_13">
    <path d="M 1059.661573 553.3575 
L 1059.661573 49.3575 
" style="fill:none;stroke:#ffffff;stroke-linecap:square;stroke-linejoin:miter;"/>
   </g>
   <g id="patch_14">
    <path d="M 1826.925 553.3575 
L 1826.925 49.3575 
" style="fill:none;stroke:#ffffff;stroke-linecap:square;stroke-linejoin:miter;"/>
   </g>
   <g id="patch_15">
    <path d="M 1059.661573 553.3575 
L 1826.925 553.3575 
" style="fill:none;stroke:#ffffff;stroke-linecap:square;stroke-linejoin:miter;"/>
   </g>
   <g id="patch_16">
    <path d="M 1059.661573 49.3575 
L 1826.925 49.3575 
" style="fill:none;stroke:#ffffff;stroke-linecap:square;stroke-linejoin:miter;"/>
   </g>
   <g id="text_38">
    <!-- Downstream -->
    <g transform="translate(1392.595786 29.3575)scale(0.16 -0.16)">
     <defs>
      <path d="M 4.203125 54.6875 
L 13.1875 54.6875 
L 24.421875 12.015625 
L 35.59375 54.6875 
L 46.1875 54.6875 
L 57.421875 12.015625 
L 68.609375 54.6875 
L 77.59375 54.6875 
L 63.28125 0 
L 52.6875 0 
L 40.921875 44.828125 
L 29.109375 0 
L 18.5 0 
z
" id="DejaVuSans-119"/>
     </defs>
     <use xlink:href="#DejaVuSans-68"/>
     <use x="77.001953" xlink:href="#DejaVuSans-111"/>
     <use x="138.183594" xlink:href="#DejaVuSans-119"/>
     <use x="219.970703" xlink:href="#DejaVuSans-110"/>
     <use x="283.349609" xlink:href="#DejaVuSans-115"/>
     <use x="335.449219" xlink:href="#DejaVuSans-116"/>
     <use x="374.658203" xlink:href="#DejaVuSans-114"/>
     <use x="413.521484" xlink:href="#DejaVuSans-101"/>
     <use x="475.044922" xlink:href="#DejaVuSans-97"/>
     <use x="536.324219" xlink:href="#DejaVuSans-109"/>
    </g>
   </g>
  </g>
 </g>
 <defs>
  <clipPath id="p73cc538028">
   <rect height="504" width="767.263427" x="26.925" y="49.3575"/>
  </clipPath>
  <clipPath id="pe663775b41">
   <rect height="504" width="230.179028" x="811.835486" y="49.3575"/>
  </clipPath>
  <clipPath id="p8019be9e79">
   <rect height="504" width="767.263427" x="1059.661573" y="49.3575"/>
  </clipPath>
 </defs>
</svg>
